<svg width="250" height="150" viewBox="0 0 250 150" fill="none" xmlns="http://www.w3.org/2000/svg">
<g clip-path="url(#clip0_2332_46752)">
<path fill-rule="evenodd" clip-rule="evenodd" d="M129.46 68.7299L130.6 67.0399L132.26 65.8599L134.28 65.3399L136.36 65.5699L138.17 66.4499L139.51 67.8799L140.17 69.7399H140.18L140.33 71.4099L140.42 72.3999L141.14 80.3799L142.86 80.2299L147.15 79.8399L145.01 70.1899L145.03 68.7799L145.41 67.4999L146.12 66.3699L147.12 65.4799L148.33 64.8999L149.72 64.6499H166.75H170.07V65.6399H167.74V77.1799H175.06V65.6299H173.9V64.6399H176.1V65.4999H176.05V78.1699H166.75V65.4999H149.72L149.3 65.5299L148.48 65.7099L147.48 66.1899L146.53 67.0999L145.84 68.9399L145.87 70.0099L148.56 82.1299L148.98 84.0199L149.38 85.8099L149.5 86.6499V86.6899V86.7099L148.83 89.6399L147.32 92.2399L145.12 94.2799L142.41 95.5899L139.44 96.0299L136.45 95.5799L133.73 94.2699L131.52 92.2099L130.02 89.5899L129.36 86.6499H130.45L131.13 89.5599L132.73 92.0899L135.08 93.9499L137.91 94.9299H140.9L143.73 93.9499L146.08 92.0899L147.68 89.5599L148.36 86.6499L148.38 86.0899L148.32 85.0899L148.12 84.1999L147.7 82.3099L147.36 80.7999H147.23L142.94 81.1999L141.22 81.3499L140.36 81.4299L139.55 72.4599L139.46 71.4699L139.31 69.7999L138.7 68.2299L137.9 67.2799L136.85 66.5499L135.6 66.1099L134.27 66.0299L133.09 66.2899L132.02 66.8399L131.02 67.7399L130.21 69.0999L129.87 70.6499L130.02 72.2899L130.11 73.2399L130.07 72.7299L130.12 73.2699L129.26 73.3499L129.18 72.4999H129.17H129.08V71.9399H129.14L129.03 70.7199L129.47 68.7099" fill="black"/>
<path fill-rule="evenodd" clip-rule="evenodd" d="M194.79 73.36H193.67V65.5H194.79V73.36Z" fill="black"/>
<path fill-rule="evenodd" clip-rule="evenodd" d="M49 61.8H49.63H50.01L50.56 65.45L51.74 68.95L53.44 72.05L55.65 74.8L58.25 77.08L61.19 78.85L64.4 80.06L67.8 80.63L70.7 80.59L73.55 80.09L76.29 79.15L78.85 77.8L81.24 76.05L83.34 73.97L85.18 71.53L86.64 68.83L86.65 68.84L86.64 68.83L87.36 67.53L88.99 65.9L90.81 64.99L92.81 64.64H123.08H123.13H123.78L123.77 68.22H125.28V68.86H123.77V70.16H125.28V70.8H123.77V71.8H129.13V72.53H123.13H122.93V65.83L92.81 65.84L91.27 66.14L89.85 66.82L89.83 66.8L88.32 68.16L88.3 68.15L87.6 69.22L87.56 69.21L86.02 72.12L84.04 74.77L81.76 77L79.17 78.8601L76.37 80.28L73.38 81.24V81.25L70.26 81.72L67.11 81.68L63.57 80.99L60.23 79.65L57.2 77.73L54.57 75.31L54.56 75.32L52.34 72.43L50.64 69.2L49.49 65.57L49 61.8Z" fill="black"/>
<path fill-rule="evenodd" clip-rule="evenodd" d="M176.05 64.6399H194.9H200.86V65.6299H194.9H176.05V64.6399Z" fill="black"/>
<path fill-rule="evenodd" clip-rule="evenodd" d="M139.56 87.51L139.2 87.35L139.05 87L139.2 86.64L139.56 86.5L139.92 86.64L140.06 87L139.92 87.35L139.56 87.51Z" fill="black"/>
<path fill-rule="evenodd" clip-rule="evenodd" d="M55.9102 61.8H56.9802L57.4102 65.24L58.8202 68.42L61.0802 71.05L64.0002 72.93L67.3302 73.88L70.8102 73.84L74.1202 72.8L76.9902 70.85L79.1802 68.16L80.5102 64.95L82.8002 61.86L85.3502 59.75L88.3302 58.32L91.5702 57.65H165.99L166.88 55.3L168.76 53.62L171.2 53L173.65 53.58L175.56 55.21L176.51 57.55H200.86V58.02V58.56V58.61H176.1H176.05H173.9V57.55H175.68L174.89 55.61L173.29 54.25L171.26 53.77L169.23 54.25L167.64 55.61L166.85 57.55H168.9V58.65H91.6902L88.4502 59.34L85.5002 60.86L83.1802 62.95L81.4402 65.56L79.9202 68.98L77.5002 71.83L74.3502 73.86L70.7702 74.92L67.0302 74.91L63.4402 73.84L60.3102 71.79L57.8902 68.94L56.3802 65.51L55.9102 61.8Z" fill="black"/>
</g>
<defs>
<clipPath id="clip0_2332_46752">
<rect width="151.86" height="43.05" fill="white" transform="translate(49 53)"/>
</clipPath>
</defs>
</svg>
